<mxfile host="Electron" modified="2023-09-19T16:38:22.525Z" agent="Mozilla/5.0 (X11; Linux x86_64) AppleWebKit/537.36 (KHTML, like Gecko) draw.io/21.6.1 Chrome/112.0.5615.204 Electron/24.6.1 Safari/537.36" etag="hz8KQSQ5SJPVDlp4NEUA" version="21.6.1" type="device">
  <diagram name="Page-1" id="JvXCb1n84xLckFWvC2jM">
    <mxGraphModel dx="989" dy="578" grid="1" gridSize="10" guides="1" tooltips="1" connect="1" arrows="1" fold="1" page="1" pageScale="1" pageWidth="850" pageHeight="1100" math="0" shadow="0">
      <root>
        <mxCell id="0" />
        <mxCell id="1" parent="0" />
        <mxCell id="dyDMZvS7VBsO-T0vbmnt-1" value="Simulator" style="rounded=0;whiteSpace=wrap;html=1;" vertex="1" parent="1">
          <mxGeometry x="40" y="120" width="480" height="20" as="geometry" />
        </mxCell>
        <mxCell id="dyDMZvS7VBsO-T0vbmnt-2" value="Loader" style="rounded=0;whiteSpace=wrap;html=1;" vertex="1" parent="1">
          <mxGeometry x="140.31" y="220" width="180" height="20" as="geometry" />
        </mxCell>
        <mxCell id="dyDMZvS7VBsO-T0vbmnt-3" value="commandline&lt;br&gt;args" style="endArrow=classic;html=1;rounded=0;" edge="1" parent="1">
          <mxGeometry width="50" height="50" relative="1" as="geometry">
            <mxPoint x="40" y="40" as="sourcePoint" />
            <mxPoint x="40" y="120" as="targetPoint" />
          </mxGeometry>
        </mxCell>
        <mxCell id="dyDMZvS7VBsO-T0vbmnt-5" value="program&lt;br&gt;filepath" style="endArrow=classic;html=1;rounded=0;" edge="1" parent="1">
          <mxGeometry width="50" height="50" relative="1" as="geometry">
            <mxPoint x="200.14" y="140" as="sourcePoint" />
            <mxPoint x="200.14" y="220" as="targetPoint" />
          </mxGeometry>
        </mxCell>
        <mxCell id="dyDMZvS7VBsO-T0vbmnt-6" value="Machine" style="endArrow=classic;html=1;rounded=0;" edge="1" parent="1">
          <mxGeometry width="50" height="50" relative="1" as="geometry">
            <mxPoint x="260.14000000000004" y="140" as="sourcePoint" />
            <mxPoint x="260.14000000000004" y="220" as="targetPoint" />
          </mxGeometry>
        </mxCell>
        <mxCell id="dyDMZvS7VBsO-T0vbmnt-9" value="Machine" style="endArrow=classic;html=1;rounded=0;" edge="1" parent="1">
          <mxGeometry width="50" height="50" relative="1" as="geometry">
            <mxPoint x="320.31" y="220" as="sourcePoint" />
            <mxPoint x="320.31" y="140" as="targetPoint" />
          </mxGeometry>
        </mxCell>
        <mxCell id="dyDMZvS7VBsO-T0vbmnt-10" value="Interpreter" style="rounded=0;whiteSpace=wrap;html=1;" vertex="1" parent="1">
          <mxGeometry x="380.31" y="220" width="139.69" height="20" as="geometry" />
        </mxCell>
        <mxCell id="dyDMZvS7VBsO-T0vbmnt-12" value="Machine" style="endArrow=classic;html=1;rounded=0;" edge="1" parent="1">
          <mxGeometry width="50" height="50" relative="1" as="geometry">
            <mxPoint x="440.31" y="140" as="sourcePoint" />
            <mxPoint x="440.31" y="220" as="targetPoint" />
          </mxGeometry>
        </mxCell>
        <mxCell id="dyDMZvS7VBsO-T0vbmnt-13" value="process(),&lt;br&gt;print_status(),&lt;br&gt;etc." style="endArrow=classic;html=1;rounded=0;" edge="1" parent="1">
          <mxGeometry width="50" height="50" relative="1" as="geometry">
            <mxPoint x="520" y="140" as="sourcePoint" />
            <mxPoint x="520" y="220" as="targetPoint" />
          </mxGeometry>
        </mxCell>
        <mxCell id="dyDMZvS7VBsO-T0vbmnt-16" value="Machine" style="rounded=0;whiteSpace=wrap;html=1;" vertex="1" parent="1">
          <mxGeometry x="60" y="220" width="60" height="20" as="geometry" />
        </mxCell>
        <mxCell id="dyDMZvS7VBsO-T0vbmnt-17" value="creates" style="endArrow=classic;html=1;rounded=0;edgeStyle=orthogonalEdgeStyle;dashed=1;" edge="1" parent="1">
          <mxGeometry width="50" height="50" relative="1" as="geometry">
            <mxPoint x="60" y="140" as="sourcePoint" />
            <mxPoint x="60" y="220" as="targetPoint" />
            <Array as="points">
              <mxPoint x="60" y="210" />
              <mxPoint x="60" y="210" />
            </Array>
            <mxPoint as="offset" />
          </mxGeometry>
        </mxCell>
        <mxCell id="dyDMZvS7VBsO-T0vbmnt-18" value="Machine" style="rounded=0;whiteSpace=wrap;html=1;" vertex="1" parent="1">
          <mxGeometry x="440.31" y="320" width="79.69" height="20" as="geometry" />
        </mxCell>
        <mxCell id="dyDMZvS7VBsO-T0vbmnt-19" value="owns" style="endArrow=classic;html=1;rounded=0;edgeStyle=orthogonalEdgeStyle;dashed=1;" edge="1" parent="1">
          <mxGeometry width="50" height="50" relative="1" as="geometry">
            <mxPoint x="440.31" y="240" as="sourcePoint" />
            <mxPoint x="440.31" y="320" as="targetPoint" />
            <Array as="points">
              <mxPoint x="440.31" y="310" />
              <mxPoint x="440.31" y="310" />
            </Array>
            <mxPoint as="offset" />
          </mxGeometry>
        </mxCell>
        <mxCell id="dyDMZvS7VBsO-T0vbmnt-20" value="creates" style="endArrow=classic;html=1;rounded=0;edgeStyle=orthogonalEdgeStyle;dashed=1;" edge="1" parent="1">
          <mxGeometry width="50" height="50" relative="1" as="geometry">
            <mxPoint x="140.01999999999998" y="140" as="sourcePoint" />
            <mxPoint x="140.01999999999998" y="220" as="targetPoint" />
            <Array as="points">
              <mxPoint x="140.01999999999998" y="210" />
              <mxPoint x="140.01999999999998" y="210" />
            </Array>
            <mxPoint as="offset" />
          </mxGeometry>
        </mxCell>
        <mxCell id="dyDMZvS7VBsO-T0vbmnt-21" value="creates" style="endArrow=classic;html=1;rounded=0;edgeStyle=orthogonalEdgeStyle;dashed=1;" edge="1" parent="1">
          <mxGeometry width="50" height="50" relative="1" as="geometry">
            <mxPoint x="380.31" y="140" as="sourcePoint" />
            <mxPoint x="380.31" y="220" as="targetPoint" />
            <Array as="points">
              <mxPoint x="380.31" y="210" />
              <mxPoint x="380.31" y="210" />
            </Array>
            <mxPoint as="offset" />
          </mxGeometry>
        </mxCell>
        <mxCell id="dyDMZvS7VBsO-T0vbmnt-22" value="I/O" style="endArrow=classic;html=1;rounded=0;startArrow=classic;startFill=1;" edge="1" parent="1">
          <mxGeometry width="50" height="50" relative="1" as="geometry">
            <mxPoint x="519.43" y="40" as="sourcePoint" />
            <mxPoint x="519.43" y="120" as="targetPoint" />
          </mxGeometry>
        </mxCell>
      </root>
    </mxGraphModel>
  </diagram>
</mxfile>
